<svg class="lds-gear-set" width="200px"  height="200px"  xmlns="http://www.w3.org/2000/svg" xmlns:xlink="http://www.w3.org/1999/xlink" viewBox="0 0 100 100" preserveAspectRatio="xMidYMid" style="background: none;"><g transform="translate(50 50)"> <g transform="translate(-17 -17) scale(0.5)"> <g transform="rotate(317.647)">
<animateTransform attributeName="transform" type="rotate" values="0;360" keyTimes="0;1" dur="1.7s" begin="0s" repeatCount="indefinite"></animateTransform><path d="M37.3496987939662 -7 L51.3496987939662 -7 L51.3496987939662 7 L37.3496987939662 7 A38 38 0 0 1 31.359972760794346 21.46047782418268 L31.359972760794346 21.46047782418268 L41.25946769740601 31.359972760794342 L31.359972760794342 41.25946769740601 L21.46047782418268 31.359972760794346 A38 38 0 0 1 7.0000000000000036 37.3496987939662 L7.0000000000000036 37.3496987939662 L7.000000000000004 51.3496987939662 L-6.999999999999999 51.3496987939662 L-7 37.3496987939662 A38 38 0 0 1 -21.46047782418268 31.35997276079435 L-21.46047782418268 31.35997276079435 L-31.359972760794342 41.259467697406016 L-41.25946769740601 31.35997276079435 L-31.359972760794346 21.460477824182682 A38 38 0 0 1 -37.3496987939662 7.000000000000007 L-37.3496987939662 7.000000000000007 L-51.3496987939662 7.000000000000009 L-51.3496987939662 -6.999999999999996 L-37.3496987939662 -6.999999999999997 A38 38 0 0 1 -31.35997276079435 -21.460477824182675 L-31.35997276079435 -21.460477824182675 L-41.25946769740602 -31.359972760794335 L-31.35997276079437 -41.259467697405995 L-21.4604778241827 -31.35997276079433 A38 38 0 0 1 -6.999999999999992 -37.3496987939662 L-6.999999999999992 -37.3496987939662 L-6.999999999999995 -51.3496987939662 L6.999999999999976 -51.3496987939662 L6.999999999999979 -37.3496987939662 A38 38 0 0 1 21.460477824182686 -31.359972760794342 L21.460477824182686 -31.359972760794342 L31.35997276079435 -41.25946769740601 L41.259467697405995 -31.359972760794367 L31.35997276079433 -21.4604778241827 A38 38 0 0 1 37.3496987939662 -6.999999999999995 M0 -23A23 23 0 1 0 0 23 A23 23 0 1 0 0 -23" fill="#606060"></path></g></g> <g transform="translate(0 22) scale(0.4)"> <g transform="rotate(19.8529)">
<animateTransform attributeName="transform" type="rotate" values="360;0" keyTimes="0;1" dur="1.7s" begin="-0.10625s" repeatCount="indefinite"></animateTransform><path d="M37.3496987939662 -7 L51.3496987939662 -7 L51.3496987939662 7 L37.3496987939662 7 A38 38 0 0 1 31.359972760794346 21.46047782418268 L31.359972760794346 21.46047782418268 L41.25946769740601 31.359972760794342 L31.359972760794342 41.25946769740601 L21.46047782418268 31.359972760794346 A38 38 0 0 1 7.0000000000000036 37.3496987939662 L7.0000000000000036 37.3496987939662 L7.000000000000004 51.3496987939662 L-6.999999999999999 51.3496987939662 L-7 37.3496987939662 A38 38 0 0 1 -21.46047782418268 31.35997276079435 L-21.46047782418268 31.35997276079435 L-31.359972760794342 41.259467697406016 L-41.25946769740601 31.35997276079435 L-31.359972760794346 21.460477824182682 A38 38 0 0 1 -37.3496987939662 7.000000000000007 L-37.3496987939662 7.000000000000007 L-51.3496987939662 7.000000000000009 L-51.3496987939662 -6.999999999999996 L-37.3496987939662 -6.999999999999997 A38 38 0 0 1 -31.35997276079435 -21.460477824182675 L-31.35997276079435 -21.460477824182675 L-41.25946769740602 -31.359972760794335 L-31.35997276079437 -41.259467697405995 L-21.4604778241827 -31.35997276079433 A38 38 0 0 1 -6.999999999999992 -37.3496987939662 L-6.999999999999992 -37.3496987939662 L-6.999999999999995 -51.3496987939662 L6.999999999999976 -51.3496987939662 L6.999999999999979 -37.3496987939662 A38 38 0 0 1 21.460477824182686 -31.359972760794342 L21.460477824182686 -31.359972760794342 L31.35997276079435 -41.25946769740601 L41.259467697405995 -31.359972760794367 L31.35997276079433 -21.4604778241827 A38 38 0 0 1 37.3496987939662 -6.999999999999995 M0 -23A23 23 0 1 0 0 23 A23 23 0 1 0 0 -23" fill="#9c9c9c"></path></g></g> <g transform="translate(28 4) scale(0.3)"> <g transform="rotate(340.147)">
<animateTransform attributeName="transform" type="rotate" values="0;360" keyTimes="0;1" dur="1.7s" begin="-0.10625s" repeatCount="indefinite"></animateTransform><path d="M37.3496987939662 -7 L51.3496987939662 -7 L51.3496987939662 7 L37.3496987939662 7 A38 38 0 0 1 31.359972760794346 21.46047782418268 L31.359972760794346 21.46047782418268 L41.25946769740601 31.359972760794342 L31.359972760794342 41.25946769740601 L21.46047782418268 31.359972760794346 A38 38 0 0 1 7.0000000000000036 37.3496987939662 L7.0000000000000036 37.3496987939662 L7.000000000000004 51.3496987939662 L-6.999999999999999 51.3496987939662 L-7 37.3496987939662 A38 38 0 0 1 -21.46047782418268 31.35997276079435 L-21.46047782418268 31.35997276079435 L-31.359972760794342 41.259467697406016 L-41.25946769740601 31.35997276079435 L-31.359972760794346 21.460477824182682 A38 38 0 0 1 -37.3496987939662 7.000000000000007 L-37.3496987939662 7.000000000000007 L-51.3496987939662 7.000000000000009 L-51.3496987939662 -6.999999999999996 L-37.3496987939662 -6.999999999999997 A38 38 0 0 1 -31.35997276079435 -21.460477824182675 L-31.35997276079435 -21.460477824182675 L-41.25946769740602 -31.359972760794335 L-31.35997276079437 -41.259467697405995 L-21.4604778241827 -31.35997276079433 A38 38 0 0 1 -6.999999999999992 -37.3496987939662 L-6.999999999999992 -37.3496987939662 L-6.999999999999995 -51.3496987939662 L6.999999999999976 -51.3496987939662 L6.999999999999979 -37.3496987939662 A38 38 0 0 1 21.460477824182686 -31.359972760794342 L21.460477824182686 -31.359972760794342 L31.35997276079435 -41.25946769740601 L41.259467697405995 -31.359972760794367 L31.35997276079433 -21.4604778241827 A38 38 0 0 1 37.3496987939662 -6.999999999999995 M0 -23A23 23 0 1 0 0 23 A23 23 0 1 0 0 -23" fill="#0a0a0a"></path></g></g></g></svg>